<svg xmlns="http://www.w3.org/2000/svg" viewBox="0 0 223.307 199.841"><defs><style>.a{fill:#fff;}</style></defs><path class="a" d="M77,109.191,265.155,65.676q-3.514,15.159-8.371,29.593L80.571,118.316,41.848,168.694Z" transform="translate(-41.848 -65.676)"/><path class="a" d="M78.529,103.3l167.965-19.88a293.974,293.974,0,0,1-11.48,27.1l-152.794,1,146.752,10.854a279.149,279.149,0,0,1-17.325,28.178L76.716,119.172l130.309,37.814a262.5,262.5,0,0,1-18.4,22.16L71.083,127.1l111.008,58.834a238.382,238.382,0,0,1-25.31,22.065L62.363,136.456l86.073,77.553a215.633,215.633,0,0,1-27.613,16.164L55.112,144.694l54.067,90.749A203.225,203.225,0,0,1,84.473,243.9L45.642,147.075Z" transform="translate(-37.226 -44.056)"/></svg>