<?xml version="1.0" encoding="iso-8859-1"?>
<!-- Generator: Adobe Illustrator 19.0.0, SVG Export Plug-In . SVG Version: 6.00 Build 0)  -->
<svg xmlns="http://www.w3.org/2000/svg" xmlns:xlink="http://www.w3.org/1999/xlink" version="1.1" id="Capa_1" x="0px" y="0px" viewBox="0 0 512 512" style="enable-background:new 0 0 512 512;" xml:space="preserve" width="512px" height="512px">
<g>
	<g>
		<g>
			<path d="M192,298.667c64.698,0,117.333-52.635,117.333-117.333S256.698,64,192,64S74.667,116.635,74.667,181.333     S127.302,298.667,192,298.667z M286.922,170.667h-41.807c-1.181-29.056-7.182-57.952-17.599-78.342     C259.685,105.208,282.91,135.004,286.922,170.667z M245.115,192h41.807c-4.012,35.663-27.237,65.458-59.406,78.342     C237.932,249.952,243.934,221.056,245.115,192z M192,85.333c12.221,0,29.409,33.047,31.573,85.333h-63.146     C162.591,118.38,179.779,85.333,192,85.333z M223.573,192c-2.164,52.286-19.352,85.333-31.573,85.333     S162.591,244.286,160.427,192H223.573z M156.484,92.324c-10.417,20.391-16.418,49.286-17.599,78.342H97.078     C101.09,135.004,124.315,105.208,156.484,92.324z M138.885,192c1.181,29.056,7.182,57.952,17.599,78.342     c-32.169-12.884-55.395-42.68-59.406-78.342H138.885z" fill="#ff6300"/>
			<path d="M138.667,384h106.667c5.896,0,10.667-4.771,10.667-10.667c0-5.896-4.771-10.667-10.667-10.667H138.667     c-5.896,0-10.667,4.771-10.667,10.667C128,379.229,132.771,384,138.667,384z" fill="#ff6300"/>
			<path d="M419.125,355.125L352,422.25l-24.458-24.458c-4.167-4.167-10.917-4.167-15.083,0c-4.167,4.167-4.167,10.917,0,15.083     l32,32c2.083,2.083,4.813,3.125,7.542,3.125c2.729,0,5.458-1.042,7.542-3.125l74.667-74.667c4.167-4.167,4.167-10.917,0-15.083     C430.042,350.958,423.292,350.958,419.125,355.125z" fill="#ff6300"/>
			<path d="M373.333,277.333c-3.6,0-7.148,0.221-10.667,0.54V42.667C362.667,19.135,343.531,0,320,0H64     C40.469,0,21.333,19.135,21.333,42.667v362.667C21.333,428.865,40.469,448,64,448h204.953c19.462,37.932,58.895,64,104.38,64     c64.698,0,117.333-52.635,117.333-117.333S438.031,277.333,373.333,277.333z M256,394.667c0,11.104,1.652,21.811,4.548,32H64     c-11.76,0-21.333-9.573-21.333-21.333V42.667c0-11.76,9.573-21.333,21.333-21.333h256c11.76,0,21.333,9.573,21.333,21.333     v239.215c-23.169,6.586-43.478,20.03-58.439,38.118H96c-5.896,0-10.667,4.771-10.667,10.667c0,5.896,4.771,10.667,10.667,10.667     h172.953C260.733,357.357,256,375.454,256,394.667z M373.333,490.667c-52.938,0-96-43.063-96-96s43.063-96,96-96     c52.938,0,96,43.063,96,96S426.271,490.667,373.333,490.667z" fill="#ff6300"/>
		</g>
	</g>
</g>
<g>
</g>
<g>
</g>
<g>
</g>
<g>
</g>
<g>
</g>
<g>
</g>
<g>
</g>
<g>
</g>
<g>
</g>
<g>
</g>
<g>
</g>
<g>
</g>
<g>
</g>
<g>
</g>
<g>
</g>
</svg>
